# xmcd
#
# Track frame offsets:
# 150
# 21945
# 26827
# 39167
# 41612
# 50028
# 60223
# 67429
# 73178
# 74840
# 82212
# 84449
# 103377
# 114725
# 121896
# 126329
# 134164
# 151032
# 164240
# 168354
# 172084
# 181064
#
# Disc length: 2617 seconds
#
# Revision: 0
# Processed by: cddbd v1.4PL0 Copyright (c) Steve Scherf et al.
# Submitted via: Audion 3.0.2 (http://www.panic.com/audion/)
#
DISCID=530a3716
DTITLE=The American People - American People (97-2001)
DYEAR=1900
DGENRE=
TTITLE0=Dreams
TTITLE1=And By the Streetlight
TTITLE2=New Orleans
TTITLE3=Seamed
TTITLE4=Telegraph
TTITLE5=Hole in my Head, Pt. II
TTITLE6=Performance Art
TTITLE7=Everyday's the Same
TTITLE8=Dropsdeal
TTITLE9=I Found It
TTITLE10=What I Thought
TTITLE11=Closer 
TTITLE12=Mockingbird
TTITLE13=I am a Warrior
TTITLE14=Ficticious Inventions
TTITLE15=Stones Throwaway
TTITLE16=Big Kids
TTITLE17=Our Farm
TTITLE18=When You Go
TTITLE19=Bring It Back
TTITLE20=My Expectations Have Been
TTITLE21=Equator
EXTD=
EXTT0=
EXTT1=
EXTT2=
EXTT3=
EXTT4=
EXTT5=
EXTT6=
EXTT7=
EXTT8=
EXTT9=
EXTT10=
EXTT11=
EXTT12=
EXTT13=
EXTT14=
EXTT15=
EXTT16=
EXTT17=
EXTT18=
EXTT19=
EXTT20=
EXTT21=
PLAYORDER=
